<svg width="34" height="33" viewBox="0 0 34 33" fill="none" xmlns="http://www.w3.org/2000/svg">
<path d="M0 10.5C0 4.97715 4.47715 0.5 10 0.5V14.5C10 20.0228 5.52285 24.5 0 24.5L0 10.5Z" fill="black"/>
<path d="M24 18.5C24 12.9772 28.4772 8.5 34 8.5V22.5C34 28.0228 29.5228 32.5 24 32.5V18.5Z" fill="black"/>
<path d="M10 10.5C10 4.97715 14.4772 0.5 20 0.5L34 0.5C34 6.02285 29.5228 10.5 24 10.5H10Z" fill="black"/>
<path d="M0 32.5C0 26.9772 4.47715 22.5 10 22.5H24C24 28.0228 19.5228 32.5 14 32.5H0Z" fill="black"/>
</svg>
