<svg width="127" height="34" viewBox="0 0 127 34" fill="none" xmlns="http://www.w3.org/2000/svg">
<path d="M0 10.5C0 4.97715 4.47715 0.5 10 0.5V14.5C10 20.0228 5.52285 24.5 0 24.5L0 10.5Z" fill="black"/>
<path d="M24 18.5C24 12.9772 28.4772 8.5 34 8.5V22.5C34 28.0228 29.5228 32.5 24 32.5V18.5Z" fill="black"/>
<path d="M10 10.5C10 4.97715 14.4772 0.5 20 0.5L34 0.5C34 6.02285 29.5228 10.5 24 10.5H10Z" fill="black"/>
<path d="M0 32.5C0 26.9772 4.47715 22.5 10 22.5H24C24 28.0228 19.5228 32.5 14 32.5H0Z" fill="black"/>
<path d="M48.126 21.596H53.054V24.5H44.364V9.056H48.126V21.596ZM54.1004 18.34C54.1004 17.0787 54.335 15.9713 54.8044 15.018C55.2884 14.0647 55.941 13.3313 56.7624 12.818C57.5837 12.3047 58.5004 12.048 59.5124 12.048C60.3777 12.048 61.133 12.224 61.7784 12.576C62.4384 12.928 62.9444 13.39 63.2964 13.962V12.224H67.0584V24.5H63.2964V22.762C62.9297 23.334 62.4164 23.796 61.7564 24.148C61.111 24.5 60.3557 24.676 59.4904 24.676C58.493 24.676 57.5837 24.4193 56.7624 23.906C55.941 23.378 55.2884 22.6373 54.8044 21.684C54.335 20.716 54.1004 19.6013 54.1004 18.34ZM63.2964 18.362C63.2964 17.4233 63.0324 16.6827 62.5044 16.14C61.991 15.5973 61.3604 15.326 60.6124 15.326C59.8644 15.326 59.2264 15.5973 58.6984 16.14C58.185 16.668 57.9284 17.4013 57.9284 18.34C57.9284 19.2787 58.185 20.0267 58.6984 20.584C59.2264 21.1267 59.8644 21.398 60.6124 21.398C61.3604 21.398 61.991 21.1267 62.5044 20.584C63.0324 20.0413 63.2964 19.3007 63.2964 18.362ZM77.26 12.092C78.6973 12.092 79.8413 12.5613 80.692 13.5C81.5573 14.424 81.99 15.7 81.99 17.328V24.5H78.25V17.834C78.25 17.0127 78.0373 16.3747 77.612 15.92C77.1867 15.4653 76.6147 15.238 75.896 15.238C75.1773 15.238 74.6053 15.4653 74.18 15.92C73.7547 16.3747 73.542 17.0127 73.542 17.834V24.5H69.78V12.224H73.542V13.852C73.9233 13.3093 74.4367 12.884 75.082 12.576C75.7273 12.2533 76.4533 12.092 77.26 12.092ZM83.8562 18.34C83.8562 17.0787 84.0909 15.9713 84.5602 15.018C85.0442 14.0647 85.6969 13.3313 86.5182 12.818C87.3396 12.3047 88.2562 12.048 89.2682 12.048C90.0749 12.048 90.8082 12.2167 91.4682 12.554C92.1429 12.8913 92.6709 13.346 93.0522 13.918V8.22H96.8142V24.5H93.0522V22.74C92.7002 23.3267 92.1942 23.796 91.5342 24.148C90.8889 24.5 90.1336 24.676 89.2682 24.676C88.2562 24.676 87.3396 24.4193 86.5182 23.906C85.6969 23.378 85.0442 22.6373 84.5602 21.684C84.0909 20.716 83.8562 19.6013 83.8562 18.34ZM93.0522 18.362C93.0522 17.4233 92.7882 16.6827 92.2602 16.14C91.7469 15.5973 91.1162 15.326 90.3682 15.326C89.6202 15.326 88.9822 15.5973 88.4542 16.14C87.9409 16.668 87.6842 17.4013 87.6842 18.34C87.6842 19.2787 87.9409 20.0267 88.4542 20.584C88.9822 21.1267 89.6202 21.398 90.3682 21.398C91.1162 21.398 91.7469 21.1267 92.2602 20.584C92.7882 20.0413 93.0522 19.3007 93.0522 18.362ZM101.428 10.948C100.768 10.948 100.225 10.7573 99.7999 10.376C99.3892 9.98 99.1839 9.496 99.1839 8.924C99.1839 8.33733 99.3892 7.85333 99.7999 7.472C100.225 7.076 100.768 6.878 101.428 6.878C102.073 6.878 102.601 7.076 103.012 7.472C103.437 7.85333 103.65 8.33733 103.65 8.924C103.65 9.496 103.437 9.98 103.012 10.376C102.601 10.7573 102.073 10.948 101.428 10.948ZM103.298 12.224V24.5H99.5359V12.224H103.298ZM112.184 15.348H110.16V24.5H106.398V15.348H105.034V12.224H106.398V11.872C106.398 10.3613 106.831 9.21733 107.696 8.44C108.561 7.648 109.83 7.252 111.502 7.252C111.781 7.252 111.986 7.25933 112.118 7.274V10.464C111.399 10.42 110.893 10.5227 110.6 10.772C110.307 11.0213 110.16 11.4687 110.16 12.114V12.224H112.184V15.348ZM126.492 12.224L118.792 30.33H114.744L117.56 24.082L112.566 12.224H116.768L119.606 19.902L122.422 12.224H126.492Z" fill="black"/>
</svg>
