<svg width="127" height="33" viewBox="0 0 127 33" fill="none" xmlns="http://www.w3.org/2000/svg">
<path d="M0 10C0 4.47715 4.47715 0 10 0V14C10 19.5228 5.52285 24 0 24L0 10Z" fill="white"/>
<path d="M24 18C24 12.4772 28.4772 8 34 8V22C34 27.5228 29.5228 32 24 32V18Z" fill="white"/>
<path d="M10 10C10 4.47715 14.4772 0 20 0L34 0C34 5.52285 29.5228 10 24 10H10Z" fill="white"/>
<path d="M0 32C0 26.4772 4.47715 22 10 22H24C24 27.5228 19.5228 32 14 32H0Z" fill="white"/>
<path d="M48.126 21.096H53.054V24H44.364V8.556H48.126V21.096ZM54.1004 17.84C54.1004 16.5787 54.335 15.4713 54.8044 14.518C55.2884 13.5647 55.941 12.8313 56.7624 12.318C57.5837 11.8047 58.5004 11.548 59.5124 11.548C60.3777 11.548 61.133 11.724 61.7784 12.076C62.4384 12.428 62.9444 12.89 63.2964 13.462V11.724H67.0584V24H63.2964V22.262C62.9297 22.834 62.4164 23.296 61.7564 23.648C61.111 24 60.3557 24.176 59.4904 24.176C58.493 24.176 57.5837 23.9193 56.7624 23.406C55.941 22.878 55.2884 22.1373 54.8044 21.184C54.335 20.216 54.1004 19.1013 54.1004 17.84ZM63.2964 17.862C63.2964 16.9233 63.0324 16.1827 62.5044 15.64C61.991 15.0973 61.3604 14.826 60.6124 14.826C59.8644 14.826 59.2264 15.0973 58.6984 15.64C58.185 16.168 57.9284 16.9013 57.9284 17.84C57.9284 18.7787 58.185 19.5267 58.6984 20.084C59.2264 20.6267 59.8644 20.898 60.6124 20.898C61.3604 20.898 61.991 20.6267 62.5044 20.084C63.0324 19.5413 63.2964 18.8007 63.2964 17.862ZM77.26 11.592C78.6973 11.592 79.8413 12.0613 80.692 13C81.5573 13.924 81.99 15.2 81.99 16.828V24H78.25V17.334C78.25 16.5127 78.0373 15.8747 77.612 15.42C77.1867 14.9653 76.6147 14.738 75.896 14.738C75.1773 14.738 74.6053 14.9653 74.18 15.42C73.7547 15.8747 73.542 16.5127 73.542 17.334V24H69.78V11.724H73.542V13.352C73.9233 12.8093 74.4367 12.384 75.082 12.076C75.7273 11.7533 76.4533 11.592 77.26 11.592ZM83.8562 17.84C83.8562 16.5787 84.0909 15.4713 84.5602 14.518C85.0442 13.5647 85.6969 12.8313 86.5182 12.318C87.3396 11.8047 88.2562 11.548 89.2682 11.548C90.0749 11.548 90.8082 11.7167 91.4682 12.054C92.1429 12.3913 92.6709 12.846 93.0522 13.418V7.72H96.8142V24H93.0522V22.24C92.7002 22.8267 92.1942 23.296 91.5342 23.648C90.8889 24 90.1336 24.176 89.2682 24.176C88.2562 24.176 87.3396 23.9193 86.5182 23.406C85.6969 22.878 85.0442 22.1373 84.5602 21.184C84.0909 20.216 83.8562 19.1013 83.8562 17.84ZM93.0522 17.862C93.0522 16.9233 92.7882 16.1827 92.2602 15.64C91.7469 15.0973 91.1162 14.826 90.3682 14.826C89.6202 14.826 88.9822 15.0973 88.4542 15.64C87.9409 16.168 87.6842 16.9013 87.6842 17.84C87.6842 18.7787 87.9409 19.5267 88.4542 20.084C88.9822 20.6267 89.6202 20.898 90.3682 20.898C91.1162 20.898 91.7469 20.6267 92.2602 20.084C92.7882 19.5413 93.0522 18.8007 93.0522 17.862ZM101.428 10.448C100.768 10.448 100.225 10.2573 99.7999 9.876C99.3892 9.48 99.1839 8.996 99.1839 8.424C99.1839 7.83733 99.3892 7.35333 99.7999 6.972C100.225 6.576 100.768 6.378 101.428 6.378C102.073 6.378 102.601 6.576 103.012 6.972C103.437 7.35333 103.65 7.83733 103.65 8.424C103.65 8.996 103.437 9.48 103.012 9.876C102.601 10.2573 102.073 10.448 101.428 10.448ZM103.298 11.724V24H99.5359V11.724H103.298ZM112.184 14.848H110.16V24H106.398V14.848H105.034V11.724H106.398V11.372C106.398 9.86133 106.831 8.71733 107.696 7.94C108.561 7.148 109.83 6.752 111.502 6.752C111.781 6.752 111.986 6.75933 112.118 6.774V9.964C111.399 9.92 110.893 10.0227 110.6 10.272C110.307 10.5213 110.16 10.9687 110.16 11.614V11.724H112.184V14.848ZM126.492 11.724L118.792 29.83H114.744L117.56 23.582L112.566 11.724H116.768L119.606 19.402L122.422 11.724H126.492Z" fill="white"/>
</svg>
