<svg width="18" height="18" viewBox="0 0 18 18" fill="none" xmlns="http://www.w3.org/2000/svg">
<path fill-rule="evenodd" clip-rule="evenodd" d="M8.46667 9.53333V17H9.46667V9.53333H17V8.53333H9.46667V1H8.46667V8.53333H1V9.53333H8.46667Z" fill="black"/>
<path d="M8.46667 17H7.71667V17.75H8.46667V17ZM8.46667 9.53333H9.21667V8.78333H8.46667V9.53333ZM9.46667 17V17.75H10.2167V17H9.46667ZM9.46667 9.53333V8.78333H8.71667V9.53333H9.46667ZM17 9.53333V10.2833H17.75V9.53333H17ZM17 8.53333H17.75V7.78333H17V8.53333ZM9.46667 8.53333H8.71667V9.28333H9.46667V8.53333ZM9.46667 1H10.2167V0.25H9.46667V1ZM8.46667 1V0.25H7.71667V1H8.46667ZM8.46667 8.53333V9.28333H9.21667V8.53333H8.46667ZM1 8.53333V7.78333H0.25V8.53333H1ZM1 9.53333H0.25V10.2833H1V9.53333ZM9.21667 17V9.53333H7.71667V17H9.21667ZM9.46667 16.25H8.46667V17.75H9.46667V16.25ZM8.71667 9.53333V17H10.2167V9.53333H8.71667ZM17 8.78333H9.46667V10.2833H17V8.78333ZM16.25 8.53333V9.53333H17.75V8.53333H16.25ZM9.46667 9.28333H17V7.78333H9.46667V9.28333ZM8.71667 1V8.53333H10.2167V1H8.71667ZM8.46667 1.75H9.46667V0.25H8.46667V1.75ZM9.21667 8.53333V1H7.71667V8.53333H9.21667ZM1 9.28333H8.46667V7.78333H1V9.28333ZM1.75 9.53333V8.53333H0.25V9.53333H1.75ZM8.46667 8.78333H1V10.2833H8.46667V8.78333Z" fill="black"/>
</svg>
